<svg xmlns="http://www.w3.org/2000/svg" viewBox="0 0 91.2 24"><g id="Layer_2" data-name="Layer 2"><g id="Layer_3_copy_2" data-name="Layer 3 copy 2"><g id="Layer_4" data-name="Layer 4"><rect width="91.2" height="24" style="fill:#fff"/></g><path d="M27.9,6.62a1.35,1.35,0,0,0-.84-.32c-.23,0-.54.13-.54.4s.34.4.56.47l.32.1c.68.2,1.2.54,1.2,1.33a1.65,1.65,0,0,1-.5,1.31,2.15,2.15,0,0,1-1.38.46A3,3,0,0,1,25,9.81l.54-1a1.74,1.74,0,0,0,1.12.51c.3,0,.62-.15.62-.5s-.5-.47-.77-.55c-.8-.23-1.32-.43-1.32-1.38a1.6,1.6,0,0,1,1.68-1.63,3.32,3.32,0,0,1,1.53.4l-.51,1Z" style="fill:#e51d21"/><path d="M30.36,4.87V7.34h0a1.23,1.23,0,0,1,1.06-.53c.84,0,1.25.56,1.25,1.4v2H31.5V8.54c0-.39-.06-.79-.53-.79s-.61.4-.61.79v1.7H29.18V4.87Z" style="fill:#e51d21"/><path d="M36.86,8.78H34.38a.65.65,0,0,0,.74.73.58.58,0,0,0,.56-.3h1.13a1.34,1.34,0,0,1-.63.86,2,2,0,0,1-1.06.28,1.72,1.72,0,0,1-1.91-1.77,1.83,1.83,0,0,1,3.65.07v.13Zm-1.1-.68a.64.64,0,0,0-.66-.52.67.67,0,0,0-.7.52Z" style="fill:#e51d21"/><path d="M38.57,10.24H37.39V4.87h1.18Z" style="fill:#e51d21"/><path d="M40.52,10.24H39.34V4.87h1.18Z" style="fill:#e51d21"/><path d="M26.72,13.64v1.11h2v1.47h-2v1.15h2.06v1.47H25V12.17h3.79v1.47Z" style="fill:#e51d21"/><path d="M33.09,15.78a1.38,1.38,0,0,0-.83-.32,1.11,1.11,0,1,0,0,2.22,1.2,1.2,0,0,0,.8-.31v1.37A2.59,2.59,0,0,1,32,19a2.4,2.4,0,0,1-2.47-2.37A2.44,2.44,0,0,1,32,14.15a2.18,2.18,0,0,1,1.07.27v1.36Z" style="fill:#e51d21"/><path d="M39.23,16.58c.06,3.2-5.53,3.21-5.47,0S39.29,13.36,39.23,16.58Zm-3.77,0c-.1,1.33,2.17,1.33,2.07,0C37.62,15.23,35.37,15.25,35.46,16.58Z" style="fill:#e51d21"/><path d="M42.43,15.34v1.33H39.89V15.34Z" style="fill:#e51d21"/><path d="M45,14.87h0A1.81,1.81,0,0,1,48,15a1.73,1.73,0,0,1,1.54-.87c1.15,0,1.55.75,1.55,1.8v2.89H49.52V16.67c0-.47,0-1.24-.67-1.24s-.77.7-.77,1.24v2.17H46.47V16.67c0-.5,0-1.27-.72-1.27s-.71.77-.71,1.27v2.17H43.42V14.3H45v.57Z" style="fill:#e51d21"/><path d="M57.15,18.84H55.54v-.5h0a1.59,1.59,0,0,1-1.37.65,2.33,2.33,0,0,1-2.3-2.42,2.32,2.32,0,0,1,2.28-2.42,1.87,1.87,0,0,1,1.41.6V14.3h1.61v4.54Zm-3.63-2.26a1,1,0,1,0,1-1A1,1,0,0,0,53.52,16.58Z" style="fill:#e51d21"/><path d="M59.83,15h0a1.59,1.59,0,0,1,1.47-.8h.31v1.55a1.35,1.35,0,0,0-.68-.15c-.9,0-1.12.59-1.12,1.37v1.83H58.22V14.3h1.61V15Z" style="fill:#e51d21"/><path d="M67.2,18.84H65.58v-.5h0A1.6,1.6,0,0,1,64.2,19a2.33,2.33,0,0,1-2.3-2.42,2.32,2.32,0,0,1,2.28-2.42,1.87,1.87,0,0,1,1.41.6V14.3H67.2v4.54Zm-3.63-2.26a1,1,0,1,0,1-1A1,1,0,0,0,63.57,16.58Z" style="fill:#e51d21"/><path d="M70,18.84H68.42V15.63H67.9V14.3h.52V12.94H70V14.3h.91v1.33H70Z" style="fill:#e51d21"/><path d="M73.07,11.5v3.38h0a1.69,1.69,0,0,1,1.46-.73c1.15,0,1.7.76,1.7,1.91v2.78H74.63V16.51c0-.53-.08-1.08-.72-1.08s-.84.55-.84,1.08v2.33H71.45V11.5Z" style="fill:#e51d21"/><path d="M84.78,14.89h0a1.57,1.57,0,0,1,1.45-.74c1.22,0,1.71.77,1.71,1.89v2.8H86.34V16.63c0-.43.07-1.2-.72-1.2s-.84.49-.84,1.06v2.35H83.17V14.3h1.61v.59Z" style="fill:#e51d21"/><path d="M11,18.86H7.08l-.36-2.92L4.32,14.2a8.17,8.17,0,0,1-.15-1.56,7.77,7.77,0,0,1,15.54,0,7.51,7.51,0,0,1-.16,1.56l-2.39,1.74-.37,2.92H12.85l-.23.16a1.14,1.14,0,0,1-1.37,0L11,18.86Z" style="fill:none;stroke:#fff;stroke-miterlimit:40;stroke-width:1.75px"/><path d="M11,18.86H7.08l-.36-2.92L4.32,14.2a8.17,8.17,0,0,1-.15-1.56,7.77,7.77,0,0,1,15.54,0,7.51,7.51,0,0,1-.16,1.56l-2.39,1.74-.37,2.92H12.85l-.23.16a1.14,1.14,0,0,1-1.37,0L11,18.86Z" style="fill:#fbce07"/><path d="M11,18.86H7.08l-.36-2.92L4.32,14.2a8.17,8.17,0,0,1-.15-1.56,7.77,7.77,0,0,1,15.54,0,7.51,7.51,0,0,1-.16,1.56l-2.39,1.74-.37,2.92H12.85l-.23.16a1.14,1.14,0,0,1-1.37,0L11,18.86Zm.13-1.36H8.28L8,15.18,5.63,13.47a3.31,3.31,0,0,1-.1-.83,3.26,3.26,0,0,1,.29-1.34L10,15.52l-4.06-5A3.37,3.37,0,0,1,7,8.82l3.64,6.29L7.36,8.23A3.24,3.24,0,0,1,9,7.06l2.22,7.8L9.63,6.74a3.27,3.27,0,0,1,1.62-.43l.36,0,.33,8.45.33-8.45.36,0a3.27,3.27,0,0,1,1.62.43l-1.62,8.12,2.22-7.8a3.24,3.24,0,0,1,1.67,1.17l-3.23,6.88,3.64-6.29a3.37,3.37,0,0,1,1,1.69l-4.07,5,4.18-4.22a3.26,3.26,0,0,1,.29,1.34,3.32,3.32,0,0,1-.11.83l-2.36,1.71L15.6,17.5H12.73l-.42.31a.63.63,0,0,1-.74,0l-.42-.31Z" style="fill:#e51d21;fill-rule:evenodd"/><path d="M11.94,4.19a8.46,8.46,0,0,0-8.45,8.45,8.65,8.65,0,0,0,.17,1.69l0,.26,2.37,1.72.4,3.23H10.8l0,0a1.84,1.84,0,0,0,2.17,0l.05,0h4.32l.41-3.23,2.36-1.72.06-.26a8.65,8.65,0,0,0,.17-1.69,8.46,8.46,0,0,0-8.45-8.45Zm7.61,10-2.39,1.74-.37,2.92H12.85l-.23.16a1.14,1.14,0,0,1-1.37,0L11,18.86H7.08l-.36-2.92L4.32,14.2a8.17,8.17,0,0,1-.15-1.56,7.77,7.77,0,0,1,15.54,0,8.26,8.26,0,0,1-.16,1.56Z" style="fill:#fff"/><path d="M82.44,16.57c.06,3.2-5.53,3.21-5.47,0S82.5,13.36,82.44,16.57Zm-3.77,0c-.09,1.33,2.17,1.33,2.07,0C80.84,15.23,78.58,15.25,78.67,16.57Z" style="fill:#e51d21"/></g></g></svg>